<mxfile host="app.diagrams.net" modified="2022-11-16T07:55:00.232Z" agent="5.0 (Windows NT 10.0; Win64; x64) AppleWebKit/537.36 (KHTML, like Gecko) Chrome/107.0.0.0 Safari/537.36" etag="6FuqXVX7jT0WsFwt0pyk" version="20.5.3" type="github">
  <diagram id="Fwy2gtFa3K8bNddK7Yr-" name="StrÃ¡nka-1">
    <mxGraphModel dx="813" dy="458" grid="1" gridSize="10" guides="1" tooltips="1" connect="1" arrows="1" fold="1" page="1" pageScale="1" pageWidth="827" pageHeight="1169" math="0" shadow="0">
      <root>
        <mxCell id="0" />
        <mxCell id="1" parent="0" />
        <mxCell id="S5YQUfc60NxVx6nSIJzB-1" value="" style="shape=image;verticalLabelPosition=bottom;labelBackgroundColor=default;verticalAlign=top;aspect=fixed;imageAspect=0;image=data:image/png,iVBORw0KGgoAAAANSUhEUgAAAiMAAADuCAYAAADrwwfyAAAAAXNSR0IArs4c6QAAAARnQU1BAACxjwv8YQUAAAAJcEhZcwAADsMAAA7DAcdvqGQAAE2jSURBVHhe7b0PdB3Fnef7zcA+TZiD88JG2DMox7NcWRM8eIiIloA1HilOIqF5MTgxslZgbMayEqMw82KwHa3Mjo8ZLK4NxDk7YJiV5QFj4mcJn3FsXmQpwdEdP/9ZUCQSEzlP9s2uT8TBlnLIGecseZoDo1dVXd1d3bf7/pGudK/k7weu1X+rq35V3fWr36/+fGxcAEIIIYSQHPF7+i8hhBBCSE6gMkIIIYSQnEJlhBBCCCE5hcoIIYQQQnIKlRFCCCGE5BQqI4QQQgjJKVRGCCGEEJJTqIwQQgghJKdQGSGEEEJITqEyQgghhJCcQmWEEEIIITmFygghhBBCcgqVEUIIIYTkFCojhBBCCMkpVEYIIYQQklOojFxFjPVFUbNgAUpua0Tnu/rgpBlAVIYpf+s6MaqPiqdh4Pl7sUgcX/SNTgx/pA8TQgghPrKrjFzqRKNdMaX8RUU1Nkk+GsNwXyd2bVqN5UtudcO+bTGWf+2beKJnWF9I8EEvdjS0I44I1rY/h9qb9PEpYxDd3x0UKolQS4734LSrpZCJ8NEVxI+347GH7kaZXc7vuBtrNrUjdlFKmRBCZi65s4wUzUGB3pwQHwzihVWfw9L6Frxw+DQGLxkf5A9GMXi2B/vf9tWAv4njzKFdeKz+URy9pI9dFYzi6IZHsP+DAlRE96C5bFKST5OFuKflLshcLvzKPbirUB8mmXPlNKJfXYyab0Rx9GQcV/RhWZ5PH46i8Uv3ItpHhYQQMnP52LhAb0+esWEM9P1KtYaDGDu3H407esRWAZb911N4tmaOdSJjROX6jS/gsePWkwpuWYa1a0SFN8+uZMfwq3Mx9Hx4D9rWl+pjwMDOBahrk1uV2H6iDbXz1OFZz/ChRtQ0n8adTx5DW12RPpotpJtmJfbKzYpWnNxTC+odWUZaHJe04Iwo5xu+/iAqyiIoFO9a7PUotn33tKWcXLcK+97cijunQ88khJAsk11lJClXcPRvPofHusTmzRtw+AdNWHiNdSZjfrkfy6u3YVBuiwrw+D/UoiiNsK5WZWRqoTIy5Vw6iheOR/BA3ULM8ZXzwee/gOXfle7IAjzc+Q42fNY6TgghM4npc9Oc3Y9dUhGRVpFvrZq4IiJ5f9hSRCQlxWkpIoTMWOYtw8P3JyoikoWfr9ZbYxiMs2MOIWRmMk3KyBUcbdsF1Z305iY0VE3UPaP5gzlwnA1v/RzxFCM1pEVEdvizrCKSXmxZojsBmh1pVSfB/Xjim/ei5g77/K0ov+ebiL4eN9xPw3i11j6/DbEgv9RYL55Q58Xvb466fn7JlThi39uGR+5ZrEabyGsWLbkXj2zdjzO+vixjJ7c51yzfF9dHvcT33avj8gX8/f7U14/FtjnXv3BWH0zFpdPYu2m1I5dFS1biiUODuBIq+1F0rrOuDeysfGkAnd99FGsMGdgdMs+E1akifwZfjxpy+xxqvrlbyWz0UKN+1gJE+/T1Av/xsaFOPFH7ObVf9rwRq4zi4x9BNIa4jFe1FW6CbJTsVqL8NnmPKE/1j+LVtz0lYuJ8qP8KIjfRJkUImZlMjzLiWEWAqr+epFVEcss9aLDN0W9vw/KvRnH0l5P/uA/8vewkuA37ewYR/40+KCqa0XM92LvhbizfOaAVkiIsW1OltoD9iJ1J1EbGzsTEGUkBVtVVwVa/xs7uRt2Su9EoFI+ec7Ia08cvDaJHKCirl3wOjxx2RwEV3FmLJq15DR4+jUT1Io4zh7Wd6LMN+GptFWqvs3aDrx/DGaFwKYpqUbHQ2kzGWN8uLK9ejagMT8tlTFTe+5vvRd2z3fitdSh9Ro+iUVTYW54/itOGDOwOmau/FDD0+KNhdDYtxvIN7YbchPLYswurqxvR/v8m5kECg/ux+v9owX6tCFz5X+rPxOLjcAW9O4XyKuOly6Ajm78X5eXdTjQq2Q1g9AN1FqN9R7GtdiV2vZ1GnJMyhliXzktUIvLHepMQQmYY06CMiMrv8G7LKnLdKqz68iStIooiPPDd51F7s7U3dq4dj4lWadlDQik5m6iUlD7yE/S9+RO0rdYHcBe2HrGO9b25AU4X138FFn6lGW3dp3D2F+cxdP48zvbuw8N69Em8bTeOaMvFnPK7Yasjnf/c71ZgCrPCb8J9dq9CUTE9smoXBmSldN1C1G7rwHEVh1Po+ocNuOuT8qIr6Nm0Di+ck9uCaxai4j6tjZw9gjMXrU2HX55Gp7ZuVK25B0UFd+G+r9vXd+LML61NhysxHPmetVnaeE9qxfA3PWhp2I1BVZFGjDj/GAe31QJt7ehUF2bAR/8f8Mm7sDYqwvrJO0rOQ7/4CQ5Ha8UTBB/04olXvbaUwbZ12GJ3WC5rUnkk8+9kdxseXngae//xtDqXjFefjeLK6jYcf8fK26HNOucnEB+Ht3bhidciaD7wYysfd62y7hHEn//PWL62BWfu3ICDPxIyO3EMz652zuKFl2Nei1mGSCUx+j0tk/sfwD3sA0UImaFMvTIiKrP9+6wPZtHXa7PX2/+mKmz/p2PYXrcQdpBXTgql5GtCKfmb/Rg0v/LXzcGcT4qf8+wC/G9yX/3cCEX+6sc4vKsBFTcXokBX0gU33YUN/+cqawe9OGe3wD9ZgXu+Ym2OvRbDoOmuGDuNmK7wi+6r1BW+UFD2bkNMV+pr2zuw/f5SFKk4FCKytAkv/19btWIUx67/1uNUVAuX1mq31AB6+7w+g/j/06n7z1ShutxS9BZ+pUGHM4gjZ7xzrVw5eQxH1VYVVtU4zq5Qhrv24KiKsxwBZca5CKX3t+LwnlWO/NPmk5VoFUpe8woRlp0p18zBwhVNWHuntTt25ueuVUfI87UX9N7NomLfv0Hlkcy/wpsrsWH/97E1jY6bYyXNeK6lUihs+oBNpvEx+aAQD+z+DtaWFVn5+JWtePZbtlzjiP9rA9p2NaF0vpDZvAiWtXwHG+zTr/cHh5kGo7FtWF4v540R3NyAfd+uzDwfCCEkT5hyZWS46xXIwbyiHY6Gr6ThE8iE60RL/cnvo09WJMtLHVfIlS7xof7SN3E0w1lG5xQWilpnFPG+XnTuEa1OOZna1+5G2YPt+grgV7+2VYQ5qLhPV8Qf7Ee30XB2XTRmmgdx+jWtyNR8E01Bc33cfI9QEPS2qKgcBcdwS8W6eo1ZTl0XTcHqVahSlhXBfDecgX/qtaxSiis402OpIqi5GxX29aGMYiCmE1YU3Nen4M+r8IDeTpuCQhReJ+R0cRBnXt+PXd/dhke+di+WL7kbW87oa84Ou1aDc2fQqRQioEIotAnWnGsiIi/u0jvh3CUUw0iQJSjT+JgU1eIeX14u/JzdqVScrrsHd2q3mULEdeFf6G3BWIr+Tgl8dAUDL67E0nX7tSJSi+f2NqPUfAYhhMwwplYZ+WgQR9t0ZVZRi6r51ma2kdaLtU93oO/EPmzQ1gFpkXnsW+KDncHHfrirBcvvWIya+kZs2bEbe+VkamdHRes72LVUUGb3zxjDq8dtbWQMA/+sHRdmmi9d0K4OQZFoRetNL3PkKU0cv3K0jiJUfFW7FGI96LU7uV48jSPKRVOAB2ruMlrGc1C1Qltz3j6CmO3a+U0MR16XG95+LOEM4+fH9WZEVNhBFfk1v683MuCDQex96HNY9KV7sXrDNrzw/H70nB0UKS5SSoGf0bg1k6skMj+4k2bBtantArdEQixBGcbHg5SL3nS4Vv8VRKSC66EAc/5Ab3ryOA0+GsbRLStR96zVd6mgbAMOdraiaspn0yWEkKllapWRwV506mZ5RU3l1M8/Me8uPNz+fWyv0Ptvt6NnSG+nYOztXWj8m06lMERWbMU+2Sfhp7JvwU/Qtb1WX+XD6J8x1iUUF6n4jPWjR1tAqpZXZy3NRTUP6j4qvYj1WW304ZNHrFEqRU24x+n4YlFwZxVWqYp0AEdOWpkgXTTKSnXdKizL2exYcjbYlYieFGm4rhQP7/q+6oMi++icPfEKvvUf9WXTRr7FJwTVgfduPHZI2kMKsPCv2nB8fxNKU2uUhBCS90ypMjL4z53aRVCJqvIpV0UsrilCpVB8LIbxL/aIiRQM/GC3ZfbGKjRvW4U7ZZ8Eu1VsDJ/0s/AvdH+O4U7EhOIz1tdjuRT8nXULi5yOjRgOMfmLo6Pv6c3rFqLY7JD4yQpUa9dLzxtnxJXDiP2TZY0J7IhqKEqWq+YKYj2Ww6zo6/egNMjKkUABPmEbE94fC47zlVHDbZQG7/biNd0RdeFjT2HDVxaqPihWHx1x3DaBGBRcd73eAv71fwVcIBgdvaC3MmQC8Zl+xnBmx4O6A+8cVEWP4XCLUO7TykNCCMl/plAZGUTsNW0WWVSB27PZ0//to3g1YNSMQrQge7t69U4RPuGYxJMxil85o04KUGCY2VVFcLxbbwewqBoNi+SGaLnGBjBwvFPVXwUP3OPtrHvNn+J23eEVXc+L+Ottk18eQbtyo4j777sT3h42huvl9WM483Yvjrwtdypx39Jg94PTkVW6ak5244gaXp1J350ISpfqRJxtR2fAEObhrk7dITZN3ovDHvfyiQKfdebd0+ix+2gYzPmT2x1Z7H/lSOIKwB8IheIFt2dMRkwgPtOOkH3LP1rpq3jy+3huRXB+E0LITGXqlJF3fw57IEfBX/ypaxUIYPjwo2pCqLLa3daw11R8+HNsk6Nmah/FrkO9OHPytPV7fT+eaLgXW2L6uptrUVGitwUFc+yPeC96ugYx+psriB/uEWpTIYpL7IpoP9pfFedkvfvBMAZefASNuiIIRnaetHwkwyf3YL9qvRahqcbnN5HKxNc3aDnEsWvVSkQPDWBYxOHKb0YRP74ba/7TNsvtcl0lWhvNPiAWruvlKI7sPW1dW3MPqsMUPacj6wCOfLcTSiwZ9d0pwJ33Nek4D2PvNx7EruNxJbcrl+KIPb8ay1tPJ8QzKUVCXnrz9F694uxHYxj95VE8sbbFiqOfm6vxgH1TrEXNNTJwUcrtCob79mPLVxvRmVksXCYSn2lmoEsPjRcqWeQPfuWWd/9vKERBJ4SQPGfKlJGxC4NOi7PqT5KpIgPYv+momhDqytu70H48faP/lbeP4oXmRqx+aLX127AN+6XvX6JGGXjXv1koKmI7JrHWe1F+x+dQs8maI6T0vmY9HHYMsb8T525dgJLbvoC6F4C/fbJBnQmjaKlQeuTGmR70yFrjsw1YpqwlPm5pwr49DVgoFYoPBrC3eSWWijiUyU6z39iF03JCsetKsWH/c1gWpGAU3IVlD1iVbk+XteBg8o6oc1BRs0xtDbxtuXQy7sdySwNav6mHT4s4v/CNu5XcyuTEbd8dwX3tz2U2mmaeUJDu14rDL/ej8Uu3ouQzt6K8+lGc/mIrmm3NwEMhard9xxktdKUrirovSbnJVZu34cgft6KtJfVomkAmFJ/pZBQXhmQJlQxi7wZd1oN+hyc6UJgQQnLLlCkj8XO2q2Qhbv+TZL3sSrHq6WVq1MKcz25Aw9I0qsrSJnS9JCqK+6uw8JZCt038yQgWVq3C1n84hr4fBIwykMrAKxtQ5YyOmYNIVcSqnG9ehX3/93ewVuxbZ+W5DdjX3YbaZLqUZF417rGH5ApKv1pp9SMJoLCiGYe7O7C9UcTdiUcBCm8Risa329B1ogMPL3JSlEBpTZMb9nW1qAoaImwwRyhKljVFMKFJ5wpQ+q3v4/hLzVhWZstayqYBzx7pQHPZJ9SR9ClAxd/+GPu+vQylepXlgnmiDES/j4OPVcLtHeLjpmV47kffx7NCbhGtlMj7ln17H47vFkqm41q7C5E/1JtpMcH4EEIIyRrTuGovyQljp/HEHaux/wNRyTZ24Kw96+gsY/DFL2D5s9IsxRWZCSFkpjGlo2lI7nFG9wT2Y5ktDGPgDbtfTwSfnqaBW4QQQrIDlZFZzSiO/ON+1ScmtB/LLGD09e8gqkYWAQWrK9IctkwIISRfoDIyG/lAjnYZRGfzg3pkUQQPb7HXt5mZjL6+DY/JEUFyWnY1Akn8Lg7i6POrUbPhqKVwoRTNDySOQiKEEJLfsM/IbONSJxqXmENSC1ARPYa2GT43xeihRpQ3252iA7huIdb+1z1orqCPhhBCZhq0jMw2jLVi5nx2GZpf+vGMV0Qkc+58AFv/ahnuMkdPiS13FNL3qYgQQsgMhZYRQgghhOQUWkYIIYQQklOojBBCCCEkp2TVTXP2lY14+ad6x8MirHlmjfh3innnZWx8CZN81lm8vPFl8a/mtjV45kE3NG8a56Jm8yZ88Ua9m4TLP3waT1+62wpr5A08vbMft6d5b+6QsjiGorB4Knm7K/4teugZrLlV70g85/1lILmclby6L+u9dOUswxRyDct/KXdRPlZv/qIIMQCVL12wn+qPkz/OCeklhBAyMaQykn0ujf9ox2PjL53Vu9PB5R+N79zxI/HkyXGp56XxH13WOzodO3vsUH82/tK+n+ltee3O8cfSfKa61rg3HSZyT3YR6X1spyEPEyGbfUbapfzNa337flllIufxsy+NP/bYS+JoOCr8xx4Lve5n++Q58UuSX944ybSbZdgXR396CSGETJhZ5Ka5NbzFmwFzv7zGaIHPxRf/chEuD7yjW8uidW+0lOfedjvmjgxjRO9fXQjZPGjI+8Yv4u7bLqP/p5akLv+0H5dvu9uR5dwv341FI/14RwsrEznj1rtRc+NZ9L+j930oK8rA7di0uSYw/5U1C2vwzEOB9hIHb5wW4fbbgJH3tJ1k5B30jyzC3V/WT/CllxBCyMSZRmXkMt7YuREbN+rfK655X1YmG195Q59/Gm+MWNe+/I40i5vXm2HI66z71fGXnsYxu7KS7oGdb+CsDDfgebJyMveTcfk98ZA/vDG4kuvuAqpFJav300emy42/Sr8dT+0GkHFUboqfirSI4y+baXOu9afDDteQm0dO/mcZ4Sq8efT0D40bU3JZVNyijv5DKanLeGfgMhaVmpKRlXt45Z1MzkITwPDIXBSFuGnmfnkTnkmiiC568Bmfu8XGSu/TPwyI08gbOPZTV/mwlKvbPXkt0+cqUIQQQibKNCkj8qP/NPpLRaXxjKgYntmEmvde9laE4mOPh6xzduv07EvS/y+PrcEiVSnv09c8gzWiYuvqTqJQjHThGFZbz5MtZnG/t+JNh7M4JhQCT6VqKAP9pc9gk91Sniii0tvXfSPWqHSK30O3q8OyAt1ULcKW/RZkemXfBNUHYwQ1m/W1Wo7eylTIRfZHccK7Uezb/RyEknDpdmzS52T4Z3/whq5M/Xn0DO6+1KXvS4N3jqFrRCgcE+pDESBng8s/PIazN96OW0OUkexhKGOyb8l09HMihBAyTcqI38StzfJnB4yqzjDp2yx6yK4MLJO5eY2quERrOrRVemMNVntM6iIa2uQe3lI2sTorjlRv8nZSvNVSDuTv9gFRae20K/PJMIIR2whx66LQClDKa2716iTuDYns7GlUoh4Xh9e14nEzJeSRlFOalbGjJE2k8g6Rs8bqyCqUtSy44BIR8hCKnatQWvsqfx8C9gmlJHMFlhBCSKZMkzIyLCpL03UgW55CEUmmTPi4cd5czJ035U1jC2X9kKNIkls+Fj24CTXoct1DE0EoSps2345+3SIPr/xMN4jBjUUp+q3MFffoTYnp5jFHjsg8EmFlKmHl8vpBETYZFq1keOKfVM7ahSJHIOXCQiHz5SGhMDuWoxBCXUuEEELSZXqUEVlh3ljjuAec35S0dieJrCAzqFyzgqz4lEzWAC+FKSSWUuF0qDRJqkRYSozCSZstf6PDZ5BSMzKSRMmxFJFj84L6awTF9Sz6f2r0+0gqZ8tlNPyXIo4pLVjTw1yhdPiVZ2Wpmi4FmRBCZjHTpIzcitvRhX1BHQVzQHgHVlEJ/uAsFv1liJIkKlBTUbj8w32efhKZdIx18IR5Y2gnTYnqMNm9z9dxtwsovdWIr7cvjYojanC3iKO/k6jqlKm3ceON4ulncczII9lBNzTHfB08/SyqrgGMuHr7faSS8zEnzlOLtr6oNIvtV0wryFm8/JJQNmzZSneXWYZV+ufi9tuC008IISR9pqkDq/TFr8GN3clGcuQPZ19y42j99IiUG4swYpxTfRkm60LwhGl1ILX7TqjhsOZoGtlfRXVI9V7vdXHMRc28fn1ex1FbLszw5G/fJdPFYE1KZuZRf2mqtPlcb/Jn96FRbg43rtbQW6/yESpnyUgXnvacE79MFb2MmCuUMfOZVj8Wb38SQz4zYtI6QgiZGXChvFmFVA6SzJhKCCGE5CHTZBkhhBBCCAmGygghhBBCcgrdNIQQQgjJKbSMEEIIISSnUBkhhBBCSE6hMkIIIYSQnEJlhBBCCCE5hcoIIYQQQnIKlRFCCCGE5BQqI4QQQgjJKVRGCCGEEJJTqIwQQgghJKdQGSGEEEJITqEyQgghhJCcQmWEEEIIITmFygghhBBCcgqVEUIIIYTkFCojhBBCCMkpVEYIIYQQklOojBBCCCEkp1AZIYQQQkhOoTJCCCGEkJzysXGB3s4CZ/HyxpfFv5qCG3BLTQMa/nyuPhDCOy9j40sjqNm8CV+8UR8jhBBCyFXBlFhGbviL9di6dSs23DMX//Pwc+gY0icIIYQQQnxMiTLy7z5+Pa6//nrc9PmvoPxTv8PFi5f1GUIIIYQQL9PXZ+Tf3sfAwafRvHkjNm7ciOZnOjDwvj5n8ruzeHnrRuz64bsY2Cuu3fMmPtSnPnyrHRv/SwfO/dtlvLFTnHvpGN74+2YrvJ3/hHO/E9f8RFyzsR1vjumbxt5E+8b/go5f6H1CCCGE5BVTqIx8iN/+5BhO/voGfOZP/z3OHdyFVwdvRF1zFNHtm/C1G87i1ReP4l19tUIqGS+8jAvFa7D+yzdh0W23AL84i36lWPwW//3Nc7jh8+W4xY71/3gX19c+iWjzMtz065M4dvp9XHvr7eL8OZz9maXC/Pat/45zN9yB8s+oXUIIIYTkGVOijFzufhobNzZj28H/iZuWN2DZH51H/8DvMP/LX0PpDdfi2oK5uOOLd+D693+BX4zom/ABfva959CFGjzywCJ8XBy5tnQx7vi4Vix++zP0/4+bUL7kJutySfEduGOeCO9Tn8HCTwHvv/8+UFCKxZ/7OM79tF+qQ/jZTy/ipj+vhHEXIYQQQvKIKVFGrA6sf4dodCvWGyNpriuQKobJtUYM/p1QUsSffxnGiO1i+b1bUP75G5RicVn8Lv6HO3D7J/S5AH73u9+pv7csuQM3SIvKiFRg5uOO0uvVcUIIIYTkH1OijFgdWD+Oa53QF+DPFn0c515/FQPvf4gPxy7jzTfexG//6M9w66f0JUIZWbjiEdR84ixefuENXP436+hNS8px0y9i2HfqIm658/NIS634o0qUf/ocYi+dwsWFf47PUxchhBBC8pYpUUYSuRaL6tdj2affxcFoM5q37ELX7+5Aw8NfhGcGkt+biy8+vAaL/qULz716FsrO8YlylH/mMi7/9g4sLr1WXZaa61G++BZcHrmCOxaXSvsLIYQQQvKULE96NhV8iDf3NOPo/74ef3dfsT6WGjnypvnI9Vj/dyuR/l2EEEIImW6myTIyQT78Hd4fOorY0E2o/It0VYoP8btfX8DRH5/DTV+ooCJCCCGE5Dl5bRk5+8pGvPzz67FoxV9jzX+8QR9NgZpa/hyuv+1r+OsH7sAN+a1uEUIIIVc9M8BNQwghhJDZDO0GhBBCCMkpVEYIIYQQklOmXBkZPtSIsm90YvgjfYAQQgghxGBKlZGxvige6anC4d21KLpGHySEEEIIMWAHVkIIIYTklCxbRkbRuW4BStZ1ii0T//EBRBeI/Z0Dak/xbicab1uARVt7YS9Ng0unsXfTSpSL4yXi+rLq1Xji0CCumC6fvqg6F+3T+6m4MojOx+/FIvPZhBBCCMkZ+dGB9aNBvLC2BbF5Ddj37UrI9fLwy/2oE8pHNPb7WPa3bdj30new4U7gSPO9qHuiF1fUjRkwNozYnkexfMm92HJw0FV4CCGEEJJT8kAZGcPAs49i16VKbN/bjNLr5LFhvPrtbRgQysnB3n1oXlGJO8uX4YFt+3A4Wonh7z2C757MUJ34zQCOvPEJ1L78HazVhwghhBCSe3KujIwefgSr24C17c+h9iZ98NwRtL8NLPtWk1ZOXIqWb0BT0Rj295zOzLoxbxmePbAVD3y2SB8ghBBCSD6QW2VkaDdatvbizif3oLlMOWcUYyOjGMZduPPP5ugjBtcU4lMR8ffd0cxdNYQQQgjJO3KrjAitIjIPOHP8tGcekrEP/kVvEUIIIWS2M03KyJj6H9f8vrVrc0M1NuxoQtHxFjQ+O+C4Xeb8cTGKcBrnLgQ4Yj4axa/j4u/NRSi0jhBCCCFkBpNlZWQObpT9PmK9OPMb64jiNwOInQGKSiMJCkTBZzegTXZKbXsQjxwatg6WVKL2ZmB/6y4MfGAdshk+vAu7hwuwquJ2fYQQQgghM5ksKyMFuPOrTYigBy1rHsXe10/jzOvteGzNf0bPdZXYsHyhvs5L0YpWtC4VOkzzOux6ewy4ZiHWbm9A5JftWP2fHsWuQ0K5OXkUezfci5rmXhQ1voJvl7t9TCTDZ8WzTtq/AQwHGFUIIYQQkn9k3U0jLR37XmlG1R+cwa4Nq7F6w24MfnoVnu18Dsvm6YsSKMSyXa9g7c1xvPBtyxpSUNaMrhP70PTpOF57ohGrH3oUuweL8MCuYzi8udSai8Sgp1U86yH7txunTcsMIYQQQvIWTgdPCCGEkJyS29E0hBBCCLnqoTJCCCGEkJxCZYQQQgghOYXKCCGEEEJyCpURQgghhOSUKVBGRtG5bgFKFti/RnRe0qfItDB6qBEl6zpFTqTLAKJGPg3sFPm2c8DamVV40zkdJMrSej8aD6XKnSTX9UV1/lrXRPvkQZk2ezs3ZF7uwlFhhZTBZOemDEfmIVzqRGO6ZStVWNlGxS0qSohVHt0ylaSMGfdkjlUW3TpgouEkkpO8J9NClpURWQgXI77+PIbO69+JKkBPrDpRvC/QJJjUCxZOXr0g4kNXHm/C0J7aCU+XX7pZ5NvmUr1HJoNflgM7rfejbUXy3El6XVkzhtbHUa7fteYyebAUzeJ9s7YnyUTekyyUuxnNvFq0nW9DbehcSmmShW9UwvdSxu1EBLuFYrA7csopU+mWxYxQ8d+NyAmjDjgQwQU2SEkKsquMXLqAOBpQbX4QxYtQm40PJEmL0aIGKhJ5yyiKVqejMKRxnVRIsqV8ZAGWuzxHKUum4pFuWcyQ4ThiFVWoNJWyMlEHTFZJI7Oe7Coj84oRQTu6k5mKpYnSMd95zZrKpG2fM8zQdW1yqvjFxvXWcTcc3ZIIalXYx+Rzl7QgJuJXJ+9xLBm+sJJYOJQFxPdMGefy5l6gbaU6bpvJvdfax02zuo3vmEc+4ueLZ+C9PW66C+fpj41Kd5jZ2JvmxkMX9HELv6UnOC02pklWPK/PzAMdv0PymDhvm6Z9afSbjaN9RpgqHmZ8k5nC5X2+8/JZYSZxHQ87PaHp9OeJ/OkwE6123jh4ZNnXjvLHvXHxlHlbbgHX2fjjqH6GjFScg9LsOebNf49M5XUJ70lAvnjkPIB2cU94vgSkM/RdDcpfHd+gfAwIx1t+zTgnt7D6ZRt4rVkWPPFJLHve8HxpNbBkI84Hyj6TMm3JKeF7qa/v1HlglRF/GfPKKXpSHxYklnEdZ0fGBkURVMR60JukLCSTc+KzAtIv8IThj4eZRwnndXiH9DVBaSC5Qc7AmlXe6xhfV1w8vqD4qfF+fcjhrae8x+V+Q8f4iH9bMPJWv7Pdv6N4fN1r9p5APOMpZ39kvKPBPm9tP/WWdUbiuVfFzYyXea+7b97v4L9XxM/eHnlt3fiCHWZqRTg7jLTI8zptCdf6ZVC8brzjPXVG4I1f+L2J8U6Mk40/zZaMzOd67w1Pi7hz/CmR1+5zrbDdPNb7Rr5K+nf4yoD/emffCt+Mm4prYLok8npTfgJPuTLOB8k6NJ0m3mcklE3feY8sPXGx7jXTMvJah7hb4LsuFE+ZtGRn5YVfDuY5LWNThp48EIS8J+Y1Ku5Bcg0gOJ1mnCxMWbnbifH1yDQhrt7z3vwZGe9/K1iq6h5PODJNRvyUjLzx8KYrIN+NPPTE2chfrxwFCekJkG2K8uFNs0DH3ZS1NwxfWsVRT34nPC95ftvPC4pjKjknxN33LOt+b57KuDr76tlm3Hzn9fPMfCT5QfY7sGpz4NAB+CwQQic93o6KaAMcY25ZA7bD0KJjcad7SWFZabjvWTyj2TE3FqKyplLcKu+0tvcet585gO62SlSVh4R0qRc9sQY0GWHVrm8w7vcTd32fIn7hRmkRzmbXd15YXiVaC1ba1HZbt4iZhZKJiLO81pJPq2HStOIT6+pVLZjwe3W8X3Rbvr3inrVLA2KYkGbZr6EDa/V2IuFpQV839la0osEx9Yprn2xFhd6zWbve24+gdHOzUQaqxbMNuQrWHrDPl6K6UfxpbHJkUrq0ARi6YLToJsCwaE3Xx7H9hOnjT5JOg4GdKxH35NEEES363W0NOGi4NgpX1CYpU35EK/jxFkQcWZlIuYl8PqmlpPNcuU/1tvlc9R5WpLBoCtx8EU9YLfI5QD4JhKYzvTIr+zVsKemYlAvI+jZIClFaZpZEG/1sjyxL0RA1vyUCUdZPGvFQMjDeRxcdnlHuC1c0Ya3v2mHRuq8bEmFORz8bz3vqI9V7rL7TLWh3LIXyep8rxkS7EE/W9KBc1AGupSNNOaeiscNwN1nlyP5GpvqGWlRi++qJlycyNUzBaBqNKpCnsH1opS6Mo7gwZJsPbROa+NDEeqG+FfJ6W4EJMMv5Mc2+yk2i8bz08qUxKrIEpH/TNonav/r24MpOdQKrQs8S6zqvqyIA01SoTK8aEU5To/3hl8qSrRhY8onM932WlNlTf/RD7xXISt02j8oKByEfH+XTjaBI76ZFSFpGL8aBkuLMP6TKtK7DW7ASe/XhIIoilaiIZBTbFPRiS72sxAM6G4blmUaahutgfggnwUTywUBW0j01p0J9/rKihP4Aj57sAexGQOBzC1FcIlTtiwmlfvIkS2eqMtu20qqsJ6GIyA7EB2G5UINdG5JhxGOV8BezwvmR5IqvcksHIcMD9tbbZVz+ZDk3lO5YC+qaIziYBx1+U7/H3kaerPD9DYwgCle0iTqgAxHxzbe+lxOUcyrkN1JtpPENJXnL1CkjCq/VQn7w1h4welnrn/NB1Rq1HIHTsyRcIZGKiOwVbt9/UmjWLrJVaFXY6qUJsg7YyEIqWzs6HOcX9oGwrT7iBYP40IQqJLJSezHihnvCay2QrXv1YitlqVq3EpJUCMbHPPheidsaVpWPtrYkEPRiqo7HIaRIS8JHRCl4SZCKyJI4muzwhCzDrTJTgWgVHWhF3J9/qdIp4t0iK49JVIweJvOBFHGVlXRrMqVoXiXEWyQqetkahWsdTPLchI94NkiazhRlVrSAD5a0oDxUiUgPNaJJ5KlqqQeGVYRIhW4U+UlWSYe+NzI8Uc7MESXqZyjA4rtzMBoXDaHwviTTRaAy4HuPXaus1QjyDFJIimXdtL5rE5RzKpy4pvcNJflJlkfTdCLq6XxkmeXslq2qSOuDX77RQ1FX+QhtcUj82q/1DBOrwo6mfmnUB7sFLZ44hyAqALfyki+V3gzA39KQH1pPBS1bhOLFjvqUJRnvWLPZEdAyxXs+0iH3SqzWsEiPqDRNN4wH3cl4t5HmgX2JVgCbZGmxXBmG+VbG98V2vR2Cv6UslSq9OXmsj53jnhAlLSotXX6KpJXLq5AkzzMRzpJgl4i03JgmYOnGSSs9suxVtKPOcGOOHuoMfDc8SGVOupieTNUylQ0BoGdfu1BJDJN6wHOVcpNRBZMBKdKZqswqy0YyhcTfaV4pjfb3QJTHne59qtINRLf8Pd8mq+x43jF/WZfvpul2drBkvyWkE7JN0Yo20ZBKpZCkWaYng1IYU7zH2iq7e91uxAPTrPF8JyVSebG/16nlnNb71Lbb+Ebq+7WlJq1vqEFoR1wy7WR9NA18bhhpSnbM2mXN+uWzz4uf/sgUzhcvr3aBSJMmDDO6+mA5vcO1r9kxgbYgXmJaRgSqwm5PfGn0C+X2ZRFh7bHMiE58xC/Q4iFeWFl5Wdd4TeSWa8gdTWPuy19LXLzs1qUay3qzV7RuPWZp5aqKGHLwyU8Rcq9EKVe9iHksJn7kfBTeNHcvDbdOJE2LtBQd8OYF1vssCn60/1n6ktU9x5FFy4jl63bLYDeqRfwCMeMuykKydNofRK/Z3fqgFq5o9aQnmSy9yLJnuTHtMMu7ZNWTDOvDGpOuJqeMiF9IRS2VRYj3IOIxqSc+t6QeOHjeULQS3pPJkCKdaZTZ0s3ifiXjIGupKM9mGXwcaHIspaKlbJY1mc4Qq6d0KXi/TfIb5Bv6WtGKyHH7vNWXJcxlJ8NTSpQTnvgFyFJdp2WtvjtB36h0y7TG+73UB5Mh3wWtnFvPCH6PVUUvNPTQPngSz3dS/rxyTCXntN6nRlGuH3fvj0cNd2Va31CSj3xM9mLV22TGIyqrdeZEWDnAdndcrZNf+bBdivwYhpEHZTYbOO7HROvZrIHvNplCprjPCJlORg+1YEtYx9VpwTKZ2qODSIrRXCQPymx2UG69pBbJmY7XHUJItqEyMhuQrbIFclTRdPfOFx8obU41Taa0AthyydIw4NlIzspsdrEn31LpyFbn5jzDGrnoc4cQkmXopiGEEEJITqFlhBBCCCE5hcoIIYQQQnJKlpUR2TM+eGis9Dv6F1syUb7XoGGEsge3Z4ha+DMmC8ecE0IIIdNPnltGBhBVs2IGTN09aWQnQ+84fDVT4yzthEYIIYTkK/mtjPQB1RzTTgghhMxqcqeMKPeLPSQ0Cu+E7tptU7/SmakvqVvGE5b4eVwt3uGnylWkhhXKWTX1TJZ6BkuPq0iFmWyaZkIIIYRkg9woI7KiV1NQ6wWkTkTQY6y8K/uF9MarnEXL5EJ47lLjPlRYcjl4HZZnpWDZD8QaH2+fa5ovDsrpj9UCbXoxK1pfCCGEkJyRE2VErqZbYa4bI5SDVs/Ku4Wo3ewqCNaCbMErf1phmRNLiXvXN3gWW7JWDZYUorQsTbVDrSA8i6d2JoQQQvKEaVVGrJUb/avuhmC6XpaErSobEpaxbLla9RN6ka6wlT8JIYQQkjOyrIwUorgEiF/0V/mW0mARfM1w3HDTSEVEjaLRrpcTYSvBhj1PYCxTr0bJSHdPTU/4UuSEEEIIyQlZt4yoZaabWzxDZv2LYRVFKsU17W7n0Eud2N2mtwWjF+NASbFQNfS+XIRKb/tJfJ61zDrUYm1ie6erfBTOj+itNGAHVkIIIWRayL6bRva1OBCxRqloN0t5V5Vn2enCFW04GY07I2VKHgeajD4jhSuasLZNu1bEryUeCbGMCBKetxg9NfZibYUoRgvK7efITrNOPErREIVnNA0hhBBCph8ulEcIIYSQnJKT0TSEEEIIITZURgghhBCSU6iMEEIIISSnUBkhhBBCSE6hMkIIIYSQnEJlhBBCCCE5hcoIIYQQQnIKlRFCCCGE5BQqI4QQQgjJKVRGCCGEEJJTqIwQQgghJKdQGSGEEEJITqEyQgghhJCcQmWEEEIIITmFygghhBBCcgqVEUIIIYTkFCojhBBCCMkps1QZGUB0wQKUGL/GQ6P63BTQF0XJuk6Miv861y1AtE8fnxRWGrITVho4abgaMPJpqtMtw18QFbmZRXKRV5c60ZhheRw91HgVlSlCyGSYfcqI+miuRDx6CkPnz+vfKVR1LfZ9GGVl34jOS3p3MpQ1Y2h9HOULFiO+/jyay/TxCSMry92InMhGWCSRQtTuOYXIi0JRfTGCk3tqxRFdee7Motogy6IM/3wzSvWhmYkoj4/H0STepUzKY+GKNgxp2RJCSDLyRhk5PzSE++vrlRVD/pX7mSM/mi2AUETaVpifQKvy2Y4WtE+VpUEqJBl+rJNR+WQbaufpHTIFyDIhFNUprSwr0TobKuNLwyh+cqYrVISQfCZvlJGtW7eir8/SFORfuZ8xl3rRE2tAk0cRsSlEZU0l9h4XLV9tPdmLXmxZIlrHhsVEtY61a8cxr6vrfaZ245jVou5Upv8Sx9piuQKcsMwWtzazD5jPMs6PHmpB+T7P0wy8LiiP+0m5BNxznmcGpCHQEmCGkWBi97u/zPC06+OQfI59b4D1KamLwb7efI55f9AzBMnSHYgvb0Q4P965AOXNvUDbSnXMdUeEyVvHpS9JXB9fHKr82rIfEM9NDFvii2NQmiacV168ZV7/7OfJZyxZiTr5nojjZhztNHjuN+Ppy2szreFlgBByVTKeJywoLk74ZcxbT40vaOgYH9G7CXjO948/VbxuvOM9taMYeW2d5361v6Nfbo13NBSPP/WWdVzSv6N4fN1r1pXqOk9Y1vX2+YT7ZTxE+pzz73WMrxP79nn3uYmYz5Xh9r+lt1WYSeKgnvGUSLWL5zk6TuZz5bPcfSkv89n6fkde1vO88k+UcfI8sp6xwIynipe9H/CMVOlOIPF8/2tWeIlyt+Lj5ruZHh0XI65KXj55mGXGxCoz/jLhDdvMZ09Yk86rJPjKSf+OsLxw0+CPp7Mvr7efaW4LRt7qTx0XQshVQ95YRsrKvP4N//7UM4rerl6sXe+a1QtXNGFtW7doURpWFcUAutsqUVVuWGAam1y3SoKFphC16xuM+wUVrWi1z8+rRVMjEL+YXlsxFh/WW4UoLbPCGDjejopoq+HasZ4ZE2lKuwUq4nRys2uML13digqVfkFfN/aacRYo+cR60GtYPkz5TYxKbD9huATKGrC9oh3dhoXBfEbG6e5rxxZ401G6IiTOOs0NTlEsRUMU6Dnphrz2gBtXJa9YHHbupKSxw3XrqXT2QmVtmuVnsnmViLTmtCBipmmzmRfVWIs4LphhiDS4LtEUsjdkU1hWGixzQshVSd4oI9u2bXMUEPlX7mdMUSRpZTB6MQ6UFId8BIcRjwF76w1TsnLlWB9fVzERyI+9qXz4GY4jhnbUOeGIX307MHQhfcUghNLN53EQlivBNXWP4sIQEJnvS1kKeaRkXjEiejNYdkWI2BXolFGI4hK9mUDm6U5eBryoa2MtKDfyUbpyXGVwiphI+clCXg3sXIyemlPefk/KvWfHQ74PKZCy15seZJ+qA9Bp8rnuCCFXPXmjjCwoKcH3DhxQnUDlX7mfMfMqUeVrRbtoy8dStzXpRX6sZavcHoFj/+yOpKWobrTClq3x8HAE8oMsW66ecMQvS50ZpUIiwztZ04NypZBYFXagZaUiIlI2QS5dEKqYReF8UdUFVoaViEz4AelgKRzBZJ7u8HQkoq4VLX9PHsqfYZGYEiZSfiabV31R1A15rSlKEVlijaKx4tCBtfpUKEqRCkF38h46UYWeJVRICCEueaOMZIdC1D7Zini9fz4E2RlwMbaUGGbxBKQrBtjyeHjHutKl0lQeRXdbA6pDwxFIpQgtaMn63CYiHTvd+KlKRyPjFmtu8XWgbAFqKq0KTLWcDUVNVDQtssOmScwcbaTvjzZYZnppohfnzTTJjrZbREorwyxEujXuujUGEJUt/KT0YovRedd6hukq8ZIy3X4C0jFwKCTP5bVtKzOaWyMrpFN+splXUumoj2P7kz5lRyoWplInLYJ606FttyF7K3+DXHWjh6LudYYVx+qEG965lhBydTDLlBHBvFq0iRYcPO4Wy/zsbdFa/n9zNI2cF+Fgidcs7xkdoCqndsTtj34oQina04FI82IjDn4FaSIUolhUUk786oGDdmtZmcEjVnrUeSvNrj+/FM0HhDJly+VxoClaqc9pRGs8cty9XypvnvuFXM00lXdVOXN0BGMph3Du6Ua1iENyKrE90u0+oznipjGIlOn2k5iOurjl0rBcceZoGnHtCUu5ta+dHhdDGuUna3llKTIxe2SZvl69E7Ifi1nejiPRMtJYBTxu32fN7xOk8BfO1++avg4HOHSdEOLyMdmLVW8TkmPkcFQ52RsrqpmAHNJbHm+aercVIWTWM/ssI4QQQgiZUVAZIYQQQkhOmb1uGtkxTq07UoneddlaM4YQQggh2WZ29xmRCons3X+AigghhBCSr7ADKyGEEEJyyqztM+JZlEv+ghYayxqjalEz70JnfuRIkfSHhdqLkKWDTKt6dsBieA7qXJ5NNOVbSG3GY8jfyZOZiJMvVrmeunlW0nlv0sGI55SXKWsBwqmQiXrn04y7+31I57si5aOvkfKZ0m+hl5y8B3nzXcnsm3+1MwuVEetjUQfvzJkHoadyl1dk+QWR02jLPinhc1tMLXJG1qb4YpSo2TJDlnpX869wyGwQWSsPUsYnItgtyt/uSLK5TvIcOXfL+jjKF3j7WuXveyPnZTmFyIui0aH6ien5VJIp5xNCVupy6PnUuH3lPEfpztIsrz0Z2S0aWr6h8IFplvJpteaDkfKZgUOxZ7RyT9Iib5SR80NDuL++Xlkx5F+5nznyY2FNvOSf+8Cz4FdWGUXR6tz3SbGmiJ+qNJK0UUpf7hTTrKGnbp+6cp3t90ZWuOIdSLMynyiVT+aPQq+Ul7QbGNMjH0ImSt4oI1u3bkVfn2X7lH/lfsYkrHbqxzLn1rUBMTU7pWtCU2ZP6c5RP6NloU1+A+Z508zZ147yJFPIhyLDFWE55l69bz/fnajdMEE7WMcaD/1C/XXvs37BJuREk2Fomv2o1lZw+N4wvK0X15RsE5QWgZl2v3nVIxfx84Sn03RIXxNmfg4NI9PyEJ4X6ph8joh/p2jFyfvs6yZctnzY8vSEZ16f1vPTaGH65BXtC5eT91qzfOm86TPLjpn25O+NP84JZcaDFT/nelmGZLyWyJll9YKDvjx3rjXkZ8tXtsLt897y3IJyY6kCL5ZFNvg+My1J3jOdf+6d4WEGvpOhaU4Sjge7LJvXm3kqCZefxJNWkZYL+riDr2z57zdlb8kirOz54pFMrgnX+tNkkoYMfGlI+T7Z6PucspxUFvL5Sd4fRfJ89cgyqXzyBNmBNR9YUFyc8MuYt54aX9DQMT6id8Po31E8vu4196qR19Z57lP7O/qtHRmmiItz/Xsd4+vE/lNvWbvpPlM8dfyp4nXjHe+JTRWm3pao/afEFRr9DDsOnvhI1Hnjek3CdR6M5wuSptnDyHhHg5FeEU6/3lb3eOIhn+FemximLywtW/MamTfOvl9O+n4376znhadZkDIM65nploeENMnw7Wt1elxZJQ/Lvj60bPlQ95rX+9MS9vwkeZSACsNbFjv0tX45JVwr95206rxx9q24etJuyMWLuHaHT2bJrvXn52v62oT3xH+ttW/LwpavIxuVPt87E1LWvLIZEe+Ite2Pe7IwguTn5pPct+Pijbc8Z7+TiWlOFo4fK1wzT9X76MvDpPIz80nJz7jeJ8+E8HxlYuStfmc7oeyJdD7li0dwODpN/nfWIyMTfX2oDOS+cW/SsAxZ+9Pu3/enQd2bKHs3HcnzVcXZSPOIeCeC45g/5I1lpKzMa6/1708dejVfY3Eva40St4+JXAek1ba2zKtFU2PISrHpMCw0XbkomeHnlasAV5jr3YhntBrrxljxcRckGz3Zg1hjtdclI1pKLXIdl7T8wWmk2Yeb3lKUqqzRYRwwXUNyvZ9K7D2egQ4uV6c14ly6uhUVOh6WXFoNM3Qhatc3ICae60q/EttXh6c5vTBMksumsLzKiZ9EhW8uyifS4y7qNwVlq9FcgyYgLUHPTzuPRKvwRTkU3rhexKk25FVMKLdqLZse9DqtSJE3zuJ7VlzTWzFZXLvZkJmUeSyOYb3voa9dLaToyFBQusK910OC5dSKk0cWQr6O60imp6IX8cAHJxJzLiwU74h8RubvmYNclNCTl9ZaWu6ik0HvZABphOPHzH/1PtqyTyq/xLRKV99BUZ5t0noXjXwuLCt1w/IjymWzEY9K8Q668jfQcfZ8F1W+hq3ubhEqA7lvuvzlemWI40KopUUQ+s1P49sW9v4ky1dRF+xu86a5ULwThgTykrxRRrZt2+YoIPKv3M8YufR62EcrlGHEY3AXkFO/ldibqoBNiF5sqW9BxLNImLVEfmR+6GsnKEV1o736rXzp4auABxBd0oOqE2alk4xM0ixegj2nUNUlTaTiOseUKMNIXJI+kyX6A3FWdA2RS0Z5PJEwUshGKQz2h2xAreAc7hachrIl06I3E8k0j4KvD8aSrWU6t9O2GFti6VfeSTFN2Mr1EMzoxThQYi10mBK5CrHtwrB/chXpyZRXjeyzdRDWIouuq2Xi+a/SFfMu2lne3Ksr3LB3MpHk4WRIUvmlKjtpvItq0Uvo8JO5UixMN4RMUyD+lacVhSgumUSD0uMik/mZjAy++Rl825Lma2Ca85+8UUYWlJTgewcOqE5z8q/czxi59HoKjTcRucy90EBPuCNvrF+6HcMyQTzngLUKrOsDD34xhuPel0stlS+1Zqnp+5aCH9gpO+2aWnYqMk2z/PhZ16gPrvr4yTBCKp50K4cgLl0Qn2pJkg9G2i/aRMJILRuZF6o1KFsnfguVh2koW6qCCCPTPEpyfQKWbOWEgt60ZaFTqlRE5KgPO8wTomWqT/nJSPmVH3vRmnTCtX9Z6tRpdSI/j5M1PShXCsnE81+lq9E7IlD9nNZu0DuZSOpwMiCp/ILKjlXpWqT5LuqO00MnqtCzJFwhkYqIHLFmx+GkfwVymyQVfPIGYAhSEVGjFu30dySuZO0h/W++Is1vW9J8zUCpySfyRhnJDpYpS7ZEEjvzhHXgkSY+YMtEOqH6URpzio5CRXL4p7dwFkUqRQuz3b1Pmdn0to02gbc8LrRswxQqO4zVDXnN1KnJJM0DiBofOhlXC8s0urfeTK+4Vs54u9T60KkXxjBJyw6AW/w1p9Du252XdFQtZw9t+lcKWHOL8UHS5023SAoyDyMN2UjTrEhX9Lib1mCyWLZsDHedI2/TNO4hdR55CbhelMXOEOVeKWWesLOD39qh3JJ6OwGZF6IMtRjv+8ChEHnLxgq812YHUaZ2us9U5d7amnj+qzK20qjATMLeyQCShpMhSeVnVbB7XzTSKl1oRsalehdHD0Xdc46FNAi/ZcFyEQWiG6h1prImlN26tgZUT0Rp9lsdZINEb4YS8M2f9LctWb4GpHlUvBPZfk+zzSxTRgRKs+5AxGM+llq069uWPkAYPbPlELmDJV6TVzLTZyiyoCZtKWvmicJ5wFKa5HPUnAHRuGv+fBxoStD0rQ9bLGa8RKKiaJHmSZ+5Lp3e3emnWbR4hrT5WfzKu6qcPh4J8V6wEjCn3lc+Y9es24ImbPc3cUVLK3Lcvn8xtpQYfSKU2TaCLUvc8z01Gc7fkUYYmZcH6TZrx16hBLo+22CyVrZsGqus+SJUWNYw9mSWiJR55CPh+iU9sggo/HKSsvWGLX6e0SATw+pX4Za5lrho6elziZSi2fe+18W1IqNdaip+SubSmpD4bZh8RS0qYlG6nTyuBw5qa8vE81+kS1dgzn2O6yL8nUxMc7JwMiW5/JSrykzr8WpPn5FU72LhfKG4OedkOTWskZ6y5zY6rWtbEC8JU8hknE9huyEvlT8TnQZBNQrNNCKFZUTj++ZP/tuWLF8T01ze5bzGeQung88iAzsbcWF1Fk3wPqQVpDzeNDETq2NenOBLSHLOpPKf5D3MX3I1M/ssIzmkdPPUKSKWFcTfcTV9AkfgEELyBD0aJanbj5DZC5WRvGfUmrBnib9HdnrYkxCVpz3slxAyfej3W7soJ935l5AZCt00hBBCCMkptIwQQgghJKdQGSGEEEJITqEykhaWXzcrY/UJIYQQ4oHKCCGEEEJyCpURQgghhOSUWaeM2ENZrZ85VbU9hM7+eWchlGsdeGcuHUA0YaZCbxh+t4332b7w5Hob6zrRqRd3kvem90xCCCFkdjO7lBE1MVgEB+1Fgw5U6xNSibDG8TsLCqmpeDNbV2NvfQvwpL5fTcXrKg5q9kTz2XqKao/CEmtBfKl1nvMJEEIIIRaz0E1jLM9dVmrNOCpXuo01eCf9kmsMZLjC71pz0jG1BoS5rH+vOG9OtV6KhmiltbqrTUXqtUwIIYSQq43ZpYzIxYjU0tM+N4p/pUVFkmWc08RdLXMY8VglIr6ViNTqnekub04IIYRcpcw+y4hUSLSbBPVaISmKoCIWFypDIu4y1JkzHLeXrS5CpKIX8aAHGEuhE0IIISSR2aWM9EWNPhpSQdCb8ypRVdGOOnPpbnFtXZu7HL+0csS6eh0rxsDOldirt232vmgsj67vb1JLPsvl/Suxt97sgzKAaH170oWvkj/T6izr7eBKCCGEzD5mlzJSFEG83h7Nshg9Nad0R9FC1O45he1DK/U58asHDhrL6ReuaMV2tKBcn+9e2oG1+pzN2hqgxbk/ju0nzPvbcDIaR519fsFK4EDyjqrpPJMQQgiZ7XChPEIIIYTklFk4moYQQgghMwkqI4QQQgjJKVRGCCGEEJJTqIwQQgghJKdQGSGEEEJITpldyohcjM4ZWuv9JczXcakTjeK4Z+2YFMiF7UrMuUoyRS+Wl+7MIYkL6YVhzUmi0pLkGWohvwyeP/UY8Z4lOHmmyldmax/NHPSCkZm8C0oeXASSEBLM7B/aKyvnFyM4uafWmAlVfkzbUbzHXEtmGgiMSziyYtsdOYU2NbFaKmSaFmMLWtMOP/dYcY6vz/XCgXK15N2InDDWHpoEMt/khHjmPDazCanUts9v42KPhJCskTeWkfNDQ7i/vl5ZMeRfuT955CyocWx/0lc5XxpG8ZOzraKQE7udx9CMUURmL6Wb5XIEs1MRkQrk8PxWKiKEkKySN8rI1q1b0ddn2evlX7k/WeT06vFoq7e1K60TS1aiTi+m57pBbJeBNkFr947pQlBuDsM0rdw2+rqJuD+s+11TvgrfCO+CPh5o8nfM3rJVr+9xfiHm8AQXjjetyczunrh54uILw/dsx23hIOPrj1+4zCXeZ/vC02nq1HkR5vIJDUPJUU7D34stskw48gmRTWheyGPWPdFDcj+NsAR2mTLLkldeJjr8lGVUyEOdt+Xse35Y+ZBIeTrX6Z+TDpl3i1FXv9h3XGCXLfN+87wv38PLEyHkqkS6afKBBcXFCb9J8dZT4wsaOsZH9K5N/46nxvv1trqm2N4fGe9okM9dN97xnjowPv5ex/g6Y3/ktXXjC3bou33hj7zVn/CsBIx7+neIZ5n3y7DN+Kq4FY+ve00eseL21FvWKYknLgYyXOueADxxtsJ0r018hoOSgym3fq/MzHh4ZBoUn/7xpxyZpilz89nqfiOeWk6B8dakDMMTJ0ky2STKyU2jTo+Zj0nDEnsqbkZ4Kj1mXEx0+CnllZiWZHkUjk8u4j6vzPzx9j5HlXFn3wgrtDwRQq5W8sYyUlbmtfv69zNDumfasXZ9osuidLNhPi+rxlrEccFoJa49YPQbmFeLpsZe9JwMaakaKwEXlpWm7R4ZFq3CuiGzb8coert6vfEta8bBRr0tjtaubzAW6tPX+xfhE61SGW5rOn1MLol0xeyF/iT6GcfD2qiGnERa1ZN1GAc3G/Eoa8D2inZ0h1goggiXuU7nAdPlUYqGaKU3nhWtaAgtLmmGYZJUNnpRROfeAXS3VaKq3JW5Jx/TkXNjh+v2UPILWQFak7KMNja55yeRRwmWRVEmXfdMKapF+YxfNJ4r8uGk8ZzS1a2oaOsOsXoElCdCyFVL3igj27ZtcxQQ+VfuTxS1+q35gTdRJnXbPJy4Mq8fubJuIOLDPHQAemG8JGZvP7EW1DVHcNDTt2MY8VglIkV6NwipOMV60CufIysY+CpgmS65+F+6fUaG44ih3VjYT/yEAoehC1rhMRAVXtuJKvRo15bjFpBhVETgjXYhikt8lVSGuDIPlkvh/EhwPAOZQBgpZFO4oglr7Uq2r1uUNaPy95OJnCdIaBmVTDCPpBulDh2+ztNed09dmz4cxrxiCCknElaeCCFXLXmjjCwoKcH3DhzA0Pnz6q/cnxDSOiBHMpgtQRtZYS+Jo0k8Qz5n6HzqVXKH4716KwCpkMhw1Ic1TYVEtB4PqtV9TT95ESIJreFRXPD04ZUtUasFPHqyBxCtc7eaEJXE4y2IeFr/KSiKoEK2ZB1Z6F+YMiMrEHVNB1CvKxAZhmEdMonMT0slCsSVeZBcNCXF6SldEwkjpWxkXliWhYHj7YkWKpNM5TwBkpbRieSReE9apMLseYekImKNfLLT4FruQrh0AXG9mUBQeSKEXLXkjTKSHbR7JqxS9rcSZatWb9q4rhCBVmxcE7vL6KGoq3yYLUC7I5/eDaJoRRtOehQSq6XqfXY7tsT0tkaavdHVoioKM04DOxdjS0mIJSiMeZWogggrtLOkgUiTW1nIyl1vyjAqRKvf7PiqZVat4yJb7bGuXiddymqlt23CZa5dIvWm4qbzOJkC4GECYaQhm9Kl0tUSRbeR1kAykXOapFtGFWnkkRchmyVBiq3fwiTdU3rTJtaCdqecWAoyog2J72JYeVJWywysjISQWcOsUkbsim6vaGk5JnH9UyMUpK9cVAzl9vHjSLCMrK0BWuzzcljwiWDFpnA+rNEX6tqVgPbjj16Mo8JjtQimUCgkB0XrWprv5YdZDgc9WGLGrTqx5akqtl7EGqvdOKmKRfxtW6njYv1StzTlUOAORJr1yIhk94nWddyR6WL01JzSio8M4xS2DxnPlq4iY1hr4YpWj8y7lyZao5LJXMrJUtz0eSXrzOYlSR2G7EOi81MpkmnIRrrN2toRD6psPWQg5zRJt4xapM4jk+B3SCpyhozUsW7AXz4rWhE5bp+3FOTAOXJCyxMh5Gpl9k96ljauGXriH0YZxlROpja5OMp+AOXxJgwFubDIDCAbZXSKEEpxJhP6EUKIySxz0+Qa2QqdKkVEKhMtaobV8JEjyQgZgUMIIYTkGCojMwE9Aqg8YRROOsjWtGs2pzmcEEJIvkE3DSGEEEJyCi0jhBBCCMkpVEYIIYQQklNmmTJi9Y8IGjaZuGBbNjGeK0cVpJhnJG1kWNO4iJi9aBshhBAyndAykhWsuRwiLy7I3vBG2WlVhjVrl6InhBBCLPJGGTk/NIT76+vVREjyr9yfWUiFJJvTfFeilXM2EEIIuQrIG2Vk69at6Ouz/Cvyr9yfGuyhrt6f49pRrhH3uO3aCXLzuMcGEJXTWB/S9zquDnk8MSzXrWOeN6fBFucfX2xMre1FuVOc+0w3jj9t3qm1E9Og4+2bftsTvt9t45OP57x2UXWK58hzUqaJrh/DpUUIIYQI8kYZsRURG/9+9tAWDL3Y18lopWcJ94Hjcqpsff5AA2LN7aqyl2uRmGusSDfKbs+aIL3YEq+27lMznMqK3pp23HqWnBK8xVPx763vRrV+1sFGcf/jafQ1sRcx0/cNHajWJ2Qlb80lYj1Pnotgy5IM+5y0rUQLWnUY1jTijgIjlQ01/bgO339eEmtBfKl1nnOaEEIISYe8UUbKyrw1l39/SrArdmN69NLNRh8Nuf4I4rggFQhzCX+BXDnXs0YMKrF9tdG7Qy7CV2HOlmqt7SFX3bUxF/STi+CFra6aiI6TpKzUCuNSL3pivtWK5Vo8FdbqsmkjFDN3PRGhuK13lTC5Qm1FtNVYLt97XuFJMyGEEJKavFFGtm3b5igg8q/czzbeJdMHEF3Sgyr/ImN6tlPLDWGuMGsqE3JqdXiVDx9ywTxpJXAWvhO/8uZexALXss8AufT6iSr06AXLHHeHf0VihbUacPyiYbnIFLkEvdoYxYWhgGXnkyxRTwghhKRD3igjC0pK8L0DB5R5X/6V+5kTVvlaFamJXJ007mnlC6QisiSOJuWCkD/vCrOF5VWAtAJIKwSqUGne66NwfkRZGaxwjF82FqmTComOH+q1QpJEKUhQIDJBKjlqI4lik6AEEUIIIemTN8pItlB9O3x9M/wLzMlOlXVDrWj1L2/uty5IV4veVKgl/HvQvq8HqKkU1XMS1BLzK7PfUbMvaoRZhIhltrDiVtGOOl+H0rq2BlTrdBdFKj0uFXu5eA9tuw3ZDSBa3461661RPYmylR1tW5LKQillbd1OvxWVF5Z2o5Cdajm3CSGEXN3MOmUEZc2646bhHumqcuf+UP1EehNcKKoTpuxjAeP4cXgsI9I6UFkD7G2LGB1XwyhF84lWxOvdZ/hHt0yIoogR5mL01JzSHUWtuU5kh1LnefWyM67rhipc0epJX/dSr+VH0VgFPG6HL61HdviCBNlaz3f7mAQg7jnYKJQk/cwWNGG7rUARQgghAi6URwghhJCcMvssI4QQQgiZUVAZIYQQQkhOoTJCCCGEkJxCZYQQQgghOYXKCCGEEEJyCpURQgghhOQUKiOEEEIIySlURgghhBCSU6iMEEIIISSHAP8/7u5iNFHmkiUAAAAASUVORK5CYII=;" vertex="1" parent="1">
          <mxGeometry x="140" y="20" width="547" height="238" as="geometry" />
        </mxCell>
        <mxCell id="S5YQUfc60NxVx6nSIJzB-2" value="" style="ellipse;whiteSpace=wrap;html=1;aspect=fixed;fillColor=#d5e8d4;strokeColor=#82b366;" vertex="1" parent="1">
          <mxGeometry x="60" y="340" width="20" height="20" as="geometry" />
        </mxCell>
        <mxCell id="S5YQUfc60NxVx6nSIJzB-3" value="" style="ellipse;whiteSpace=wrap;html=1;aspect=fixed;fillColor=#d5e8d4;strokeColor=#82b366;" vertex="1" parent="1">
          <mxGeometry x="100" y="340" width="20" height="20" as="geometry" />
        </mxCell>
        <mxCell id="S5YQUfc60NxVx6nSIJzB-4" value="" style="ellipse;whiteSpace=wrap;html=1;aspect=fixed;fillColor=#d5e8d4;strokeColor=#82b366;" vertex="1" parent="1">
          <mxGeometry x="105" y="345" width="10" height="10" as="geometry" />
        </mxCell>
        <mxCell id="S5YQUfc60NxVx6nSIJzB-5" value="closed" style="rounded=1;whiteSpace=wrap;html=1;" vertex="1" parent="1">
          <mxGeometry x="30" y="384" width="120" height="30" as="geometry" />
        </mxCell>
        <mxCell id="S5YQUfc60NxVx6nSIJzB-6" value="open for reading" style="rounded=1;whiteSpace=wrap;html=1;" vertex="1" parent="1">
          <mxGeometry x="260" y="330" width="120" height="30" as="geometry" />
        </mxCell>
        <mxCell id="S5YQUfc60NxVx6nSIJzB-7" value="open for writing" style="rounded=1;whiteSpace=wrap;html=1;" vertex="1" parent="1">
          <mxGeometry x="260" y="441" width="120" height="30" as="geometry" />
        </mxCell>
      </root>
    </mxGraphModel>
  </diagram>
</mxfile>
